<?xml version="1.0" encoding="UTF-8" standalone="no"?>
<svg
   version="1.1"
   id="Layer_1"
   x="0px"
   y="0px"
   width="64"
   viewBox="0 0 64 64"
   enable-background="new 0 0 1024 1024"
   xml:space="preserve"
   height="64"
   xmlns="http://www.w3.org/2000/svg"
   xmlns:svg="http://www.w3.org/2000/svg">
   <defs id="defs2" />
<path
   fill="#000000"
   opacity="1"
   stroke="none"
   d="m 13.00451,44.170369 c 1.24065,1.72947 2.70054,3.20822 4.37276,4.47454 0.27797,0.21051 0.52443,0.44315 0.56157,0.82198 0.0399,0.40697 -0.0822,0.74278 -0.43014,0.97208 -0.35547,0.23423 -0.7257,0.23662 -1.08003,0.0129 -0.69504,-0.43878 -1.29167,-1.00543 -1.89276,-1.56045 -2.80452,-2.58952 -4.8084799,-5.72683 -6.1765199,-9.2946 -0.12939,-0.33743 -0.3116796,-0.66118 -0.1855996,-1.0496 0.1414596,-0.43579 0.4565696,-0.72035 0.8576596,-0.74781 0.44936,-0.0307 0.81932,0.19113 0.9974299,0.63368 0.38089,0.94637 0.75045,1.89679 1.20942,2.80927 0.51099,1.0159 1.08699,1.99024 1.76621,2.92797 z"
   id="path2"
   style="fill:#ffffff;fill-opacity:1;stroke-width:0.0627451" />
<path
   fill="#000000"
   opacity="1"
   stroke="none"
   d="m 41.98791,58.075829 c 0.0142,0.4265 -0.0433,0.81605 0.0509,1.26824 0.57777,-0.22994 1.1162,-0.42665 1.64094,-0.65601 2.79518,-1.22171 5.40399,-2.76756 7.74904,-4.7504 1.71048,-1.44628 3.21547,-3.09529 4.54142,-4.91876 1.835,-2.52352 3.24836,-5.26599 4.1721,-8.26409 0.56509,-1.83404 0.93562,-3.70868 1.09897,-5.62983 0.13933,-1.63867 0.19256,-3.2757 0.0608,-4.91325 -0.20561,-2.55459 -0.75431,-5.03469 -1.61841,-7.44318 -1.42791,-3.97994 -3.53611,-7.53814 -6.41095,-10.59472 -4.35108,-4.6261402 -9.62459,-7.5754499 -15.78186,-8.8641399 -2.24454,-0.46978 -4.51894,-0.63803 -6.80172,-0.51492 -4.67374,0.25205 -9.04581,1.57424 -13.10263,3.9736797 -2.79114,1.65085 -5.3278,3.6284202 -7.47361,6.0941202 -3.0597395,3.51587 -5.2366295,7.53543 -6.4887895,12.0698 -0.61491,2.22673 -0.86973,4.50568 -0.98689,6.80755 -0.0397,0.77989 -0.63374,1.35456 -1.3257999,1.32745 -0.70126997,-0.0275 -1.28350997,-0.62553 -1.29278997,-1.38091 -0.0197,-1.60262 0.19076,-3.18457 0.47075,-4.75707 C 1.6707206,20.294739 4.6674005,14.608629 9.2825101,9.8382089 13.83084,5.1368291 19.32615,2.1198691 25.66691,0.74941904 c 2.50827,-0.54213 5.05602,-0.7515 7.61371,-0.61991 5.34589,0.27506 10.3344,1.79293006 14.96025,4.56884006 4.49832,2.6993797 8.12062,6.3038999 10.87851,10.8146199 1.83144,2.99543 3.18493,6.20602 4.01948,9.63716 0.71642,2.94548 0.99618,5.94051 0.83367,8.96661 -0.28091,5.22991 -1.79417,10.06431 -4.53548,14.50356 -2.32166,3.75965 -5.28256,6.87592 -8.87607,9.37166 -1.69756,1.17899 -3.52197,2.12766 -5.36913,3.03257 -0.0861,0.0422 -0.17402,0.0814 -0.25656,0.12997 -0.0326,0.0192 -0.0529,0.0604 -0.0844,0.0984 0.12783,0.13902 0.28713,0.0751 0.42547,0.076 1.59459,0.01 3.18922,0.013 4.78385,0.0164 0.55499,0.001 0.98868,0.2189 1.24744,0.73541 0.24691,0.49285 0.21318,0.97786 -0.0872,1.43537 -0.27575,0.42 -0.67011,0.57578 -1.16465,0.57502 -4.7977,-0.007 -9.59542,-0.003 -14.39313,-0.003 -7.24468,0 -14.48936,-0.004 -21.73403,0.004 -0.60506,6.3e-4 -1.07615,-0.19839 -1.37142,-0.74683 -0.47233,-0.87732 0.11146,-1.94769 1.09231,-1.99412 0.45263,-0.0214 0.90802,-0.0194 1.36047,0.005 0.34226,0.0184 0.45681,-0.1108 0.45361,-0.45756 -0.0128,-1.38932 -0.003,-2.77885 -0.004,-4.1683 -10e-4,-3.36837 -0.008,-6.73676 0.002,-10.10509 10e-4,-0.37633 -0.0983,-0.66693 -0.34237,-0.94686 -1.83464,-2.10455 -3.27822,-4.46183 -4.32583,-7.06867 -0.8331099,-2.0731 -1.3963599,-4.22338 -1.6108199,-6.45285 -0.54429,-5.65815 0.71279,-10.88196 3.7237099,-15.66215 0.22998,-0.3651 0.3018,-0.62302 0.0265,-1.03675 -0.70308,-1.05656 -0.63711,-2.44011 0.0704,-3.39101 0.82598,-1.11013 2.08816,-1.55375 3.40632,-1.11891 0.40989,0.13522 0.67138,0.0635 0.98318,-0.19228 2.1503,-1.7636902 4.5345,-3.1085802 7.12216,-4.0768802 1.77335,-0.66358 3.60399,-1.06512 5.48287,-1.2724097 1.56367,-0.1725 3.12567,-0.20685 4.68875,-0.0653 4.37896,0.3965497 8.45167,1.7034497 12.03067,4.3763597 3.16205,2.3615202 5.41566,5.4327202 6.64476,9.2447302 1.02921,3.19205 1.19036,6.4285 0.28542,9.68308 -0.10418,0.37469 -0.0633,0.67491 0.0942,1.00019 0.90737,1.87377 1.81159,3.74913 2.71293,5.62593 0.33237,0.69207 0.67585,1.37986 0.97612,2.0865 0.73028,1.7186 -0.51236,3.82606 -2.34255,3.99406 -1.08388,0.0995 -2.16952,0.0319 -3.25446,0.0222 -0.0823,-7.4e-4 -0.1644,-0.0136 -0.24674,-0.0165 -0.92757,-0.0326 -0.88942,-0.0295 -0.95673,0.90556 -0.18618,2.58624 -0.32285,5.17843 -0.67616,7.74862 -0.2709,1.97064 -2.1927,3.72625 -4.13291,3.89094 -1.08932,0.0925 -2.16645,0.0267 -3.24653,-0.082 -0.53565,-0.0539 -0.58948,-0.006 -0.58941,0.55241 1.3e-4,1.22054 0.002,2.44108 0.003,3.70355 M 20.22068,31.970819 c -0.99421,-1.12755 -1.15351,-2.34989 -0.43839,-3.67338 0.17842,-0.33022 0.19724,-0.59329 0.0341,-0.93252 -1.44123,-2.99695 -2.86709,-6.00159 -4.30197,-9.00172 -0.0622,-0.13001 -0.0906,-0.29698 -0.27136,-0.36924 -0.065,0.0882 -0.13601,0.17182 -0.19346,0.26426 -2.90352,4.6721 -3.85671,9.75417 -2.97866,15.1886 0.36704,2.27166 1.20118,4.39392 2.30308,6.40455 0.88934,1.62278 1.96857,3.10836 3.11596,4.5459 0.44913,0.5627 0.67577,1.18074 0.66931,1.93133 -0.0183,2.13257 0.0312,4.26564 0.0305,6.3985 -9.2e-4,2.69422 -0.0166,5.38854 -0.0479,8.08254 -0.005,0.43516 0.1401,0.55317 0.54579,0.54906 1.8007,-0.0182 3.60165,-0.0115 5.4025,-0.0117 4.89395,-3.8e-4 9.7879,-6e-5 14.68185,0.002 0.29087,1.3e-4 0.52623,0.0152 0.5227,-0.42614 -0.019,-2.37176 -0.0149,-4.74379 -0.002,-7.11563 0.002,-0.32972 -0.13872,-0.44498 -0.42034,-0.49612 -0.4318,-0.0784 -0.86187,-0.16835 -1.29018,-0.26495 -1.90652,-0.43 -3.77599,-0.99271 -5.60718,-1.68185 -0.77058,-0.29 -1.11921,-1.05081 -0.85494,-1.75197 0.29659,-0.78687 0.9711,-1.11105 1.77014,-0.81781 1.77359,0.6509 3.58903,1.14788 5.42946,1.54971 2.21803,0.48427 4.45686,0.80676 6.73145,0.80088 1.16059,-0.003 1.95363,-0.6375 2.23289,-1.78697 0.13592,-0.55949 0.14888,-1.13466 0.18886,-1.70765 0.17639,-2.52837 0.37322,-5.05524 0.55393,-7.58331 0.0658,-0.91966 0.61631,-1.46892 1.51765,-1.47065 1.5534,-0.003 3.10682,-1.2e-4 4.66021,-0.004 0.22603,-5e-4 0.46465,0.0277 0.65127,-0.13997 -0.009,-0.21527 -0.10751,-0.37135 -0.18476,-0.53299 -1.19903,-2.50885 -2.39026,-5.02169 -3.60757,-7.52128 -0.3121,-0.64089 -0.40026,-1.26456 -0.17782,-1.94504 0.2741,-0.83847 0.46765,-1.69377 0.54977,-2.57956 0.23757,-2.56231 -0.0541,-5.04249 -1.10964,-7.39341 -1.60479,-3.5743 -4.16437,-6.24207 -7.56462,-8.05056 -4.10039,-2.1808602 -8.48268,-2.8719102 -13.03437,-2.2299302 -4.10751,0.57932 -7.74703,2.3292002 -10.96218,5.0018402 -0.17526,0.14569 -0.21861,0.30509 -0.20304,0.51205 0.0544,0.72281 -0.14343,1.38669 -0.61882,1.90434 -0.38903,0.42362 -0.31896,0.76849 -0.0956,1.22759 1.22231,2.51203 2.41847,5.03732 3.62521,7.55725 0.32346,0.67545 0.65252,1.34809 0.983,2.03027 0.21764,-0.12287 0.3008,-0.28967 0.40114,-0.43411 1.26389,-1.81948 2.52419,-3.64155 3.78347,-5.46435 0.5306,-0.76805 1.05313,-1.54195 1.58654,-2.30795 0.20243,-0.2907 0.3132,-0.55662 0.11553,-0.92034 -0.18558,-0.34149 -0.25767,-0.73883 -0.2682,-1.13552 -0.0311,-1.17087 0.68289,-2.30662 1.73891,-2.77707 1.0976,-0.48898 2.51696,-0.23178 3.38168,0.61278 0.82201,0.80285 1.12029,2.11004 0.66017,3.21992 -0.1739,0.41948 -0.12283,0.71792 0.0984,1.07897 1.56698,2.55673 3.12434,5.11966 4.67333,7.68781 0.52456,0.86971 0.5092,0.87473 1.5169,0.81568 0.1687,-0.01 0.28728,-0.0665 0.38113,-0.20204 0.80104,-1.15696 1.60134,-2.31448 2.4061,-3.46875 0.12569,-0.18029 0.1143,-0.33742 0.0396,-0.54437 -0.21904,-0.60725 -0.24474,-1.23338 -0.0435,-1.85423 0.45871,-1.41486 1.65144,-2.19296 3.20332,-2.09862 1.24067,0.0754 2.28208,1.05031 2.57065,2.40646 0.40062,1.88271 -0.98627,3.69947 -2.86322,3.65779 -0.49342,-0.011 -0.70999,0.17551 -0.94995,0.53104 -0.60021,0.88928 -1.21305,1.77081 -1.85251,2.63089 -0.31408,0.42242 -0.41348,0.82153 -0.28105,1.35308 0.34166,1.37135 -0.35915,2.79405 -1.63928,3.36295 -1.04491,0.46438 -2.08725,0.3918 -3.01354,-0.29324 -0.93512,-0.69157 -1.39873,-1.66671 -1.19822,-2.85428 0.0982,-0.58131 -0.0584,-1.01224 -0.35143,-1.4813 -0.96799,-1.54928 -1.89938,-3.12237 -2.84804,-4.68428 -0.7387,-1.21623 -1.47933,-2.43126 -2.22521,-3.6429 -0.24766,-0.4023 -0.52265,-0.41827 -0.81657,-0.0518 -0.15623,0.19481 -0.28911,0.40921 -0.43141,0.61557 -1.73234,2.51232 -3.46273,5.02605 -5.19926,7.53535 -0.18354,0.2652 -0.23066,0.49508 -0.0739,0.80814 0.3376,0.67411 0.3992,1.40826 0.19881,2.12925 -0.61747,2.22158 -3.12116,2.90331 -4.935,1.30698 m -4.5258,-18.53887 c -0.28183,-0.10799 -0.47459,0.014 -0.61319,0.25614 -0.0977,0.17074 -0.10878,0.34833 0.0329,0.50033 0.18385,0.19721 0.38421,0.31447 0.63717,0.097 0.26326,-0.22628 0.26502,-0.49843 -0.0569,-0.8535 m 23.68905,16.34831 c -0.033,0.29499 0.0978,0.48591 0.37365,0.55033 0.29705,0.0693 0.46469,-0.117 0.55247,-0.37154 0.0865,-0.2508 -0.0357,-0.44921 -0.25678,-0.53691 -0.2943,-0.11672 -0.53376,-0.0253 -0.66934,0.35812 M 30.762,16.575669 c 0.25869,0.20874 0.48672,0.12999 0.67807,-0.0963 0.13928,-0.16471 0.13895,-0.36036 0.015,-0.53771 -0.14665,-0.20988 -0.35552,-0.27663 -0.57081,-0.1405 -0.27949,0.17672 -0.39088,0.42264 -0.12229,0.77451 m -8.0067,13.36328 c 0.057,-0.32368 -0.0874,-0.51353 -0.39265,-0.55641 -0.24761,-0.0348 -0.42385,0.10284 -0.49756,0.33962 -0.0763,0.24525 0.0181,0.44434 0.24168,0.55482 0.30666,0.15152 0.48472,-0.0295 0.64853,-0.33803 m 22.7852,-8.68675 c -0.23625,0.17885 -0.35354,0.40244 -0.16564,0.67424 0.13261,0.19183 0.32713,0.29813 0.56666,0.17424 0.22164,-0.11464 0.32294,-0.31295 0.26091,-0.55127 -0.0808,-0.31057 -0.31043,-0.39505 -0.66193,-0.29721 z"
   id="path1"
   style="fill:#ffffff;fill-opacity:1;stroke-width:0.0627451" />
</svg>
